<?xml version="1.0" encoding="UTF-8" standalone="no"?>
<!-- Created with Inkscape (http://www.inkscape.org/) -->

<svg
   width="66.939583mm"
   height="46.037498mm"
   viewBox="0 0 66.939583 46.037498"
   version="1.1"
   id="svg5"
   xml:space="preserve"
   inkscape:version="1.2.1 (9c6d41e410, 2022-07-14)"
   sodipodi:docname="logo.svg"
   xmlns:inkscape="http://www.inkscape.org/namespaces/inkscape"
   xmlns:sodipodi="http://sodipodi.sourceforge.net/DTD/sodipodi-0.dtd"
   xmlns="http://www.w3.org/2000/svg"
   xmlns:svg="http://www.w3.org/2000/svg"><sodipodi:namedview
     id="namedview7"
     pagecolor="#ffffff"
     bordercolor="#999999"
     borderopacity="1"
     inkscape:showpageshadow="0"
     inkscape:pageopacity="0"
     inkscape:pagecheckerboard="0"
     inkscape:deskcolor="#d1d1d1"
     inkscape:document-units="mm"
     showgrid="false"
     inkscape:zoom="1"
     inkscape:cx="72"
     inkscape:cy="168.5"
     inkscape:window-width="866"
     inkscape:window-height="1040"
     inkscape:window-x="2511"
     inkscape:window-y="0"
     inkscape:window-maximized="0"
     inkscape:current-layer="layer1" /><defs
     id="defs2" /><g
     inkscape:label="Camada 1"
     inkscape:groupmode="layer"
     id="layer1"
     transform="translate(-44.053123,-103.45208)"><path
       style="fill:#000000;stroke-width:0.264583"
       d="m 101.60476,146.27161 c -1.01601,-0.26726 -3.159133,-0.67872 -4.76249,-0.91435 -4.824219,-0.709 -14.160873,-0.26637 -17.634098,0.83599 -0.368062,0.11682 -0.45158,0.0524 -0.332952,-0.25672 0.08709,-0.22696 0.283335,-0.33541 0.436089,-0.241 0.152757,0.0944 0.200965,0.0474 0.10713,-0.10441 -0.2261,-0.36583 2.554761,-2.15545 5.47188,-3.52141 4.381158,-2.05152 11.172004,-3.27909 16.396521,-2.96399 l 2.0681,0.12473 -0.17297,-1.02199 c -0.0951,-0.5621 -0.23014,-1.23036 -0.3,-1.48502 -0.10726,-0.39102 0.0575,-0.46302 1.05936,-0.46302 h 1.18638 l 0.6657,2.84006 c 0.36613,1.56203 0.61676,2.889 0.55694,2.94882 -0.0598,0.0598 -1.03406,-0.0573 -2.16497,-0.26038 -3.14397,-0.5644 -11.512747,-0.49789 -14.353007,0.11407 -2.269167,0.48891 -7.273862,2.0032 -7.107928,2.15066 0.04958,0.0441 1.410909,-0.25418 3.025187,-0.66276 4.002562,-1.01307 8.811821,-1.37717 13.511115,-1.02292 2.035673,0.15346 3.729613,0.40212 3.828423,0.562 0.19476,0.31513 0.59597,3.64939 0.45234,3.75919 -0.0492,0.0376 -0.92072,-0.15029 -1.93675,-0.41755 z m -19.716221,-1.67682 c 0.363802,-0.20796 0.542396,-0.37812 0.396875,-0.37812 -0.145521,0 -0.56224,0.17016 -0.926042,0.37812 -0.363802,0.20797 -0.542396,0.37813 -0.396875,0.37813 0.145521,0 0.56224,-0.17016 0.926042,-0.37813 z m -29.802593,1.52136 c 0.07204,-0.25466 0.209072,-1.07918 0.304514,-1.83226 0.114809,-0.90589 0.322737,-1.43351 0.614451,-1.55916 0.242506,-0.10445 2.614855,-0.24701 5.271886,-0.31678 5.360459,-0.14077 8.52849,0.15196 12.165728,1.12415 1.274838,0.34075 2.358449,0.57947 2.408024,0.53049 0.237329,-0.23445 -5.433589,-1.80466 -8.270232,-2.28992 -2.700173,-0.46191 -3.875407,-0.52335 -7.562611,-0.39534 -2.401094,0.0834 -5.109766,0.32061 -6.019271,0.52723 -1.178701,0.26778 -1.651987,0.29011 -1.647868,0.0778 0.0032,-0.16386 0.280286,-1.48856 0.615796,-2.94377 l 0.610018,-2.64583 1.259012,-0.0816 c 1.106621,-0.0717 1.243046,-0.0237 1.127099,0.39687 -0.07255,0.26315 -0.207236,0.92493 -0.299297,1.47064 l -0.167384,0.99219 H 56.3096 c 5.852918,0 10.399193,0.96507 14.995606,3.18324 2.920896,1.40959 5.597069,3.15124 5.380516,3.50163 -0.107416,0.1738 -0.03986,0.19525 0.182377,0.0579 0.785744,-0.48561 -4.644427,-4.69918 -8.605602,-6.67755 -4.599461,-2.29716 -8.54714,-3.24018 -14.353646,-3.42878 -2.510234,-0.0815 -4.564062,-0.25654 -4.564062,-0.3889 0,-0.5134 4.047447,-15.97142 4.236413,-16.17971 0.110131,-0.1214 0.934624,-0.0147 1.832207,0.23718 1.506716,0.42276 1.625829,0.51078 1.551986,1.14676 -0.06877,0.59231 -0.199259,0.68353 -0.930967,0.65082 -0.584422,-0.0261 -0.890595,0.0982 -0.977438,0.39687 -0.06955,0.23921 -0.677808,2.81617 -1.351688,5.72659 -0.67388,2.91041 -1.278585,5.48343 -1.34379,5.7178 -0.09984,0.35886 0.247906,0.45579 2.202674,0.61395 9.515168,0.76988 17.671787,4.75581 22.022537,10.76185 1.131377,1.56182 1.002003,1.02317 -0.186595,-0.77689 -2.344902,-3.55122 -7.107606,-7.64621 -11.426245,-9.82434 -1.984009,-1.00064 -5.52097,-2.22762 -8.022323,-2.78296 -2.295956,-0.50973 -2.301482,-0.5186 -1.663376,-2.6692 0.21293,-0.71764 1.16136,-4.20784 2.107622,-7.75599 0.946262,-3.54816 1.786199,-6.51692 1.866527,-6.59725 0.263495,-0.2635 2.876568,0.51945 4.849389,1.453 1.281441,0.60639 2.532093,1.48795 3.704166,2.61098 l 1.769526,1.69548 -2.30538,-1.17358 c -2.57965,-1.31321 -5.964099,-2.43923 -6.271996,-2.08672 -0.110746,0.12679 -0.883535,2.79038 -1.717308,5.91908 -0.833774,3.12869 -1.567399,5.87215 -1.630279,6.09656 -0.08725,0.31139 0.453949,0.58517 2.285078,1.15598 7.909663,2.46565 14.195764,7.47565 16.920964,13.48595 0.897726,1.97989 0.898007,1.98168 0.412417,2.6219 -0.344279,0.45392 -0.475282,0.4488 -3.100441,-0.12109 -2.395868,-0.52012 -3.507158,-0.59514 -8.826388,-0.5958 -5.61458,-7.9e-4 -6.34584,0.0547 -9.451295,0.71641 -3.979599,0.84793 -3.982877,0.84815 -3.81484,0.25415 z m 21.865093,-1.65365 c -0.218281,-0.14106 -0.515938,-0.25648 -0.661458,-0.25648 -0.145521,0 -0.08599,0.11542 0.132291,0.25648 0.218281,0.14107 0.515938,0.25648 0.661459,0.25648 0.14552,0 0.08599,-0.11541 -0.132292,-0.25648 z m 4.494614,-0.31996 c 0.846953,-2.22899 2.148002,-4.15135 4.473467,-6.60976 3.466251,-3.66441 7.894881,-6.29553 13.282861,-7.89155 1.077137,-0.31907 1.996101,-0.61521 2.042142,-0.6581 0.08804,-0.082 -3.134196,-12.35675 -3.292028,-12.54061 -0.359363,-0.41863 -6.090417,1.82165 -8.135623,3.18024 -0.454789,0.3021 0.0065,-0.26727 1.025192,-1.26527 1.257824,-1.23233 2.48879,-2.12866 3.836458,-2.79351 1.962886,-0.96836 4.618117,-1.76114 4.912519,-1.46674 0.08371,0.0837 1.039582,3.5271 2.124159,7.65196 1.084583,4.12487 2.07828,7.81668 2.20823,8.20402 0.23413,0.69785 0.22069,0.70697 -1.47839,1.00285 -5.791972,1.00863 -12.623458,4.56129 -16.7773,8.7249 -1.740215,1.74431 -4.391255,5.22602 -4.157313,5.45996 0.0687,0.0687 0.459385,-0.35775 0.868201,-0.94767 0.408813,-0.58992 1.496652,-1.77731 2.417421,-2.63864 5.002244,-4.67935 11.419631,-7.28927 19.282201,-7.84195 2.13582,-0.15013 2.49809,-0.24111 2.39136,-0.60053 -0.0692,-0.23298 -0.61362,-2.56672 -1.20986,-5.1861 -1.6311,-7.1658 -1.43035,-6.62099 -2.438477,-6.61754 -0.742683,0.003 -0.878369,-0.0978 -0.948188,-0.70141 -0.07465,-0.64535 0.03962,-0.73958 1.363635,-1.12448 0.79481,-0.23106 1.60538,-0.41947 1.80127,-0.41869 0.24594,9.8e-4 0.99202,2.51867 2.41098,8.13594 1.13015,4.47399 2.05289,8.20756 2.05052,8.29684 -0.002,0.0893 -2.05814,0.23232 -4.56837,0.31788 -2.579229,0.0879 -5.35171,0.33426 -6.375243,0.5665 -5.632437,1.27798 -11.244244,4.07297 -15.425317,7.68264 -2.021565,1.7453 -2.323076,1.75941 -1.684507,0.0788 z m -0.868428,-7.94827 c -0.372682,-3.98886 -1.997573,-9.64747 -3.8178,-13.29531 -1.297601,-2.60047 -3.462703,-5.77645 -5.356535,-7.85747 -1.353721,-1.48752 -1.585438,-1.88048 -1.443152,-2.44739 l 0.1695,-0.67535 h 10.693491 10.69349 l 0.269182,0.708 c 0.24497,0.64432 0.151548,0.82875 -1.038675,2.05052 -4.951659,5.08291 -8.755126,13.71176 -9.484373,21.517 -0.08498,0.90951 -0.239131,1.65365 -0.342564,1.65365 -0.103434,0 -0.257588,-0.74414 -0.342564,-1.65365 z m -10.061797,-25.2677 c -0.06426,-0.10915 -0.01559,-0.46633 0.10815,-0.79375 l 0.224992,-0.59532 h 10.034386 c 8.90597,0 10.052444,0.0471 10.194983,0.41852 0.462384,1.20495 0.77443,1.16898 -10.142534,1.16898 -5.666725,0 -10.355715,-0.0893 -10.419977,-0.19843 z m 0.614778,-2.82264 c 0,-1.24844 -0.292089,-1.21226 9.787032,-1.21226 h 9.465834 l 0.159536,0.59531 c 0.08775,0.32742 0.161166,0.68461 0.163153,0.79375 0.002,0.10914 -4.401701,0.19844 -9.785972,0.19844 -8.274548,0 -9.789583,-0.0581 -9.789583,-0.37524 z"
       id="path191" /></g></svg>
